<svg xmlns="http://www.w3.org/2000/svg" width="2500" viewBox="0 0 291 291" height="2500"><circle r="145.5" fill="#f1f3f4" cy="145.5" cx="145.5"></circle><path fill="#304ffe" d="m24.4 176.3c21 0 21-13.6 42-13.6s21 13.6 42 13.6 21-13.6 42-13.6 21 13.6 42 13.6 21-13.6 42-13.6c19.9 0 20.9 12.2 38.7 13.5 16-70.4-28.1-140.4-98.5-156.3s-140.3 28.1-156.3 98.4c-4.3 18.9-4.3 38.6-.1 57.5 2.1.3 4.2.5 6.3.5z"></path><path fill="#ffd54f" d="m132.9 33h34v31.5h-34z"></path><path fill="#fff176" d="m132.9 33h12v31.5h-12z"></path><ellipse ry="10" rx="8" fill="#fff176" cy="40.8" cx="144.6"></ellipse><path fill="#f4511e" d="m132.1 29.4c0-9.7 7.9-17.6 17.6-17.6s17.6 7.9 17.6 17.6"></path><path fill="#e64a19" d="m149.8 11.8c9.6 0 17.4 7.8 17.4 17.5v.1h-17.4z"></path><path fill="#f4511e" d="m130.9 28.8h37.4c1.3 0 2.3 1 2.3 2.3s-1 2.3-2.3 2.3h-37.4c-1.3 0-2.3-1-2.3-2.3s1.1-2.3 2.3-2.3z"></path><path fill="#c5cae9" d="m128 161.5 4.9-97.3h34l4.4 92.5z"></path><path fill="none" d="m167.4 71.7 1.3 25.8"></path><path fill="#ff7043" d="m131.6 88.4-1.3 27 38.4-17.9-1.3-25.8z"></path><path fill="none" d="m170 122.8 1.3 25.8"></path><path fill="#ff7043" d="m128.9 142-1.4 27 43.8-20.4-1.3-25.8z"></path><path fill="#e64a19" d="m127.7 49.9h43.9v14.4h-43.9z"></path><path fill="#f4511e" d="m127.7 49.9h28.8v14.4h-28.8z"></path><path opacity=".5" fill="#ffe082" d="m149.3 49.9c0 5.2-4.9 9.4-10.8 9.4s-10.8-4.2-10.8-9.4"></path><path fill="#2979ff" d="m205 45.9c1.2 0 2.3.3 3.3.7a13.9 13.9 0 0 1 26.8-3.6 9.3 9.3 0 1 1 0 18.6h-30.1c-4.4 0-7.9-3.5-7.9-7.9s3.5-7.8 7.9-7.8z"></path><path fill="#448aff" d="m115.5 121.1c1 0 1.9.2 2.8.6.6-6.5 6.3-11.2 12.7-10.7 4.5.4 8.4 3.4 10 7.6 4.4-.2 8.1 3.1 8.3 7.5s-3.1 8.1-7.5 8.3h-26.2c-3.7-.1-6.6-3.3-6.4-6.9 0-3.5 2.8-6.3 6.3-6.4z"></path><circle r="1.4" fill="#fdd835" cy="30.5" cx="180.9"></circle><g fill="#fff9c4"><circle r="2.5" cy="110.1" cx="193.4"></circle><circle r="2.5" cy="87.6" cx="44.4"></circle><circle r="2.5" cy="130.4" cx="84.5"></circle><circle r="2.5" cy="70.8" cx="182.8"></circle><circle r="2.5" cy="134.1" cx="234.6"></circle></g><g fill="#fdd835"><circle r="1.4" cy="143.3" cx="39.1"></circle><circle r="1.4" cy="114.7" cx="52.2"></circle><circle r="1.4" cy="107.3" cx="61"></circle><circle r="1.4" cy="74.2" cx="98.1"></circle><circle r="1.4" cy="78.2" cx="215.4"></circle><circle r="1.4" cy="137.4" cx="271.1"></circle><circle r="1.4" cy="69.9" cx="74.6"></circle><circle r="1.4" cy="138" cx="199.8"></circle><circle r="1.4" cy="102.5" cx="242.7"></circle></g><path opacity=".5" fill="#ffe082" d="m133.5 32.5s-66.5-9.3-66.7-9.3c-26 17-38 35-44 44l110.6-16.2z"></path><path opacity=".5" fill="#304ffe" d="m168.2 64.2h-17.2v88.1l20.7 9.2z"></path><path fill="#00c853" d="m108.7 176.6c21 0 21-13.6 42-13.6s21 13.6 42 13.6c17.8 0 20.5-9.8 33.8-12.8-18.1-9.9-45.1-16.2-75.3-16.2s-57.6 6.4-75.7 16.4c12.8 3.1 15.6 12.6 33.2 12.6z"></path><path fill="#64dd17" d="m108.8 176.4c21 0 21-13.6 42-13.6h.4l-.2-15c-30 0-57 6.2-75 16 12.5 3.2 15.4 12.6 32.8 12.6z"></path></svg>